<?xml version="1.0" standalone="no"?>
<!DOCTYPE svg PUBLIC "-//W3C//DTD SVG 20010904//EN"
 "http://www.w3.org/TR/2001/REC-SVG-20010904/DTD/svg10.dtd">
<svg version="1.0" xmlns="http://www.w3.org/2000/svg"
 width="512.000000pt" height="512.000000pt" viewBox="0 0 512.000000 512.000000"
 preserveAspectRatio="xMidYMid meet">
<metadata>
Created by potrace 1.14, written by Peter Selinger 2001-2017
</metadata>
<g transform="translate(0.000000,512.000000) scale(0.100000,-0.100000)"
fill="#000000" stroke="none">
<path d="M2458 5115 c-2 -1 -22 -5 -45 -9 -460 -62 -834 -484 -844 -951 -2
-64 8 -172 17 -186 2 -3 6 -20 9 -37 10 -57 56 -196 90 -267 145 -314 308
-284 613 111 56 72 116 146 134 164 44 43 102 69 145 64 77 -10 125 -53 263
-232 47 -61 88 -111 91 -111 4 -1 12 12 19 28 24 58 143 164 199 176 9 2 32 9
51 14 81 25 234 3 286 -40 21 -17 29 -4 48 76 40 175 42 296 5 440 -94 374
-386 657 -764 742 -59 13 -307 27 -317 18z"/>
<path d="M1285 4094 c-39 -29 -54 -109 -50 -264 2 -80 6 -154 8 -165 2 -11 8
-46 12 -79 24 -200 107 -481 220 -746 50 -116 187 -389 272 -540 38 -69 86
-154 105 -190 40 -72 74 -134 125 -227 19 -35 38 -63 41 -62 12 1 51 55 78
108 31 64 63 174 72 255 14 120 6 408 -14 511 -2 10 -6 35 -9 55 -3 20 -7 45
-9 55 -2 11 -7 40 -11 65 -10 67 -85 364 -93 372 -4 4 -23 4 -41 -2 -76 -22
-213 1 -291 49 -36 22 -124 114 -160 167 -72 108 -154 326 -175 469 -18 122
-22 161 -19 166 7 13 -44 15 -61 3z"/>
<path d="M3812 4103 c-17 -6 -32 -45 -38 -98 -12 -100 -29 -178 -64 -285 -32
-98 -37 -126 -35 -187 9 -185 -97 -340 -270 -396 -137 -45 -299 0 -401 113
-21 23 -65 60 -97 82 -104 71 -195 175 -300 343 l-47 76 -92 -118 c-107 -137
-96 -124 -175 -205 l-62 -63 40 -139 c22 -77 41 -150 43 -161 2 -12 14 -69 25
-126 30 -149 30 -149 37 -204 3 -27 7 -61 9 -75 8 -57 18 -220 18 -285 0 -173
-19 -302 -65 -440 -38 -115 -85 -194 -164 -273 -62 -63 -62 -64 -49 -95 18
-43 42 -141 50 -202 7 -54 12 -66 23 -48 4 6 34 41 67 78 33 37 68 77 78 89
92 106 237 243 552 517 425 372 666 648 770 884 15 33 32 66 38 74 12 14 17
28 66 171 44 127 89 308 107 430 18 115 22 175 20 305 -1 125 -4 156 -20 188
-20 40 -42 57 -64 50z"/>
<path d="M3210 3649 c-99 -57 -113 -181 -29 -261 109 -104 286 -19 273 132
-11 116 -145 187 -244 129z"/>
<path d="M3164 1942 c-16 -15 -63 -57 -104 -92 -41 -36 -80 -70 -86 -76 -6 -5
-35 -30 -64 -55 -174 -147 -377 -349 -517 -515 -151 -179 -287 -364 -338 -459
-21 -38 -64 -107 -96 -153 -43 -60 -59 -91 -59 -115 l0 -32 662 1 c365 1 666
2 669 3 10 2 4 72 -7 79 -6 4 -36 44 -67 89 -77 113 -141 250 -173 368 -48
176 -41 391 18 560 26 74 99 234 155 339 24 44 42 81 40 83 -2 1 -17 -10 -33
-25z"/>
<path d="M1928 222 l-28 -3 0 -110 0 -109 667 2 668 3 0 108 0 107 -30 1
c-111 2 -1255 3 -1277 1z"/>
</g>
</svg>
